<svg viewBox="0 0 64 64" fill="none" xmlns="http://www.w3.org/2000/svg">
  <defs>
    <linearGradient id="grad1" x1="0%" y1="0%" x2="100%" y2="100%">
      <stop offset="0%" style="stop-color:#667eea"/>
      <stop offset="100%" style="stop-color:#764ba2"/>
    </linearGradient>
  </defs>
  <rect width="64" height="64" rx="16" fill="url(#grad1)"/>
  <path d="M24 28H40M24 36H40M42 48H22C20.3431 48 19 46.6569 19 45V19C19 17.3431 20.3431 16 22 16H33.1716C33.702 16 34.2107 16.2107 34.5858 16.5858L44.4142 26.4142C44.7893 26.7893 45 27.298 45 27.8284V45C45 46.6569 43.6569 48 42 48Z" stroke="white" stroke-width="3" stroke-linecap="round" stroke-linejoin="round"/>
  <path d="M34 16V25C34 26.1046 34.8954 27 36 27H45" stroke="white" stroke-width="3" stroke-linecap="round" stroke-linejoin="round"/>
</svg>
